<svg width="200" height="210" viewBox="0, 0, 200, 210" xmlns="http://www.w3.org/2000/svg">
  <rect x="0" y="0" width="200" height="80" rx="10" ry="10" fill="#efefff" stroke="#5555aa" />
  <text x="100" y="40" text-anchor="middle" alignment-baseline="middle" font-family="sans-serif" font-size="20" fill="#5555aa">
    Base
  </text>

  <rect x="0" y="130" width="95" height="80" rx="10" ry="10" fill="#efefff" stroke="#5555aa" />
  <text x="47.5" y="170" text-anchor="middle" alignment-baseline="middle" font-family="sans-serif" font-size="20" fill="#5555aa">
    Any
  </text>
  <rect x="105" y="130" width="95" height="80" rx="10" ry="10" fill="#efefff" stroke="#5555aa" />
  <text x="152.5" y="170" text-anchor="middle" alignment-baseline="middle" font-family="sans-serif" font-size="20" fill="#5555aa">
    Yours
  </text>

  <path d="
    M47.5 80
    L20 100
    L75 100
    L47.5 80
  " fill="#5555aa" />

  <path d="
    M152.5 80
    L125 100
    L180 100
    L152.5 80
  " fill="#5555aa" />

  <path d="
    M46.5 100
    L48.5 100
    L48.5 130
    L46.5 130
    L46.5 100
  " fill="#5555aa" />

  <path d="
    M151.5 100
    L153.5 100
    L153.5 130
    L151.5 130
    L151.5 100
  " fill="#5555aa" />
</svg>
